<svg width="1440" height="278" viewBox="0 0 1440 278" fill="none" xmlns="http://www.w3.org/2000/svg">
<g clip-path="url(#clip0_19_154)">
<rect width="1440" height="278" fill="#101010"/>
<path d="M118.102 176.216C117.25 176.216 116.47 176.06 115.762 175.748C115.054 175.424 114.454 174.986 113.962 174.434C113.47 173.882 113.116 173.264 112.9 172.58L114.43 171.95C114.754 172.814 115.234 173.48 115.87 173.948C116.518 174.404 117.274 174.632 118.138 174.632C118.666 174.632 119.128 174.548 119.524 174.38C119.92 174.212 120.226 173.978 120.442 173.678C120.67 173.366 120.784 173.006 120.784 172.598C120.784 172.034 120.622 171.59 120.298 171.266C119.986 170.93 119.524 170.678 118.912 170.51L116.446 169.754C115.474 169.454 114.73 168.98 114.214 168.332C113.698 167.684 113.44 166.94 113.44 166.1C113.44 165.368 113.614 164.726 113.962 164.174C114.322 163.61 114.814 163.172 115.438 162.86C116.074 162.536 116.794 162.374 117.598 162.374C118.402 162.374 119.128 162.518 119.776 162.806C120.436 163.094 120.994 163.484 121.45 163.976C121.906 164.456 122.242 165.008 122.458 165.632L120.946 166.262C120.658 165.506 120.226 164.936 119.65 164.552C119.074 164.156 118.396 163.958 117.616 163.958C117.136 163.958 116.71 164.042 116.338 164.21C115.978 164.366 115.696 164.6 115.492 164.912C115.3 165.212 115.204 165.572 115.204 165.992C115.204 166.484 115.36 166.922 115.672 167.306C115.984 167.69 116.458 167.984 117.094 168.188L119.344 168.854C120.4 169.178 121.198 169.64 121.738 170.24C122.278 170.84 122.548 171.584 122.548 172.472C122.548 173.204 122.356 173.852 121.972 174.416C121.6 174.98 121.078 175.424 120.406 175.748C119.746 176.06 118.978 176.216 118.102 176.216ZM125.131 176V162.59H126.751L131.773 169.736H130.945L135.931 162.59H137.551V176H135.769V164.822L136.399 165.02L131.413 172.04H131.269L126.337 165.02L126.895 164.822V176H125.131ZM140.529 176V162.59H142.149L147.171 169.736H146.343L151.329 162.59H152.949V176H151.167V164.822L151.797 165.02L146.811 172.04H146.667L141.735 165.02L142.293 164.822V176H140.529Z" fill="#A1A8B7"/>
<path d="M669.44 117V102.1H674.98C675.993 102.1 676.887 102.287 677.66 102.66C678.447 103.02 679.06 103.553 679.5 104.26C679.94 104.953 680.16 105.8 680.16 106.8C680.16 107.827 679.913 108.7 679.42 109.42C678.94 110.14 678.287 110.673 677.46 111.02L680.88 117H677.8L674.14 110.46L675.9 111.5H672.16V117H669.44ZM672.16 109.1H675.02C675.513 109.1 675.94 109.007 676.3 108.82C676.66 108.62 676.94 108.347 677.14 108C677.34 107.653 677.44 107.253 677.44 106.8C677.44 106.333 677.34 105.933 677.14 105.6C676.94 105.253 676.66 104.987 676.3 104.8C675.94 104.6 675.513 104.5 675.02 104.5H672.16V109.1ZM686.997 117.24C685.877 117.24 684.897 116.987 684.057 116.48C683.217 115.973 682.564 115.287 682.097 114.42C681.631 113.553 681.397 112.593 681.397 111.54C681.397 110.447 681.631 109.48 682.097 108.64C682.577 107.787 683.224 107.113 684.037 106.62C684.864 106.127 685.784 105.88 686.797 105.88C687.651 105.88 688.397 106.02 689.037 106.3C689.691 106.58 690.244 106.967 690.697 107.46C691.151 107.953 691.497 108.52 691.737 109.16C691.977 109.787 692.097 110.467 692.097 111.2C692.097 111.387 692.084 111.58 692.057 111.78C692.044 111.98 692.011 112.153 691.957 112.3H683.557V110.3H690.477L689.237 111.24C689.357 110.627 689.324 110.08 689.137 109.6C688.964 109.12 688.671 108.74 688.257 108.46C687.857 108.18 687.371 108.04 686.797 108.04C686.251 108.04 685.764 108.18 685.337 108.46C684.911 108.727 684.584 109.127 684.357 109.66C684.144 110.18 684.064 110.813 684.117 111.56C684.064 112.227 684.151 112.82 684.377 113.34C684.617 113.847 684.964 114.24 685.417 114.52C685.884 114.8 686.417 114.94 687.017 114.94C687.617 114.94 688.124 114.813 688.537 114.56C688.964 114.307 689.297 113.967 689.537 113.54L691.657 114.58C691.444 115.1 691.111 115.56 690.657 115.96C690.204 116.36 689.664 116.673 689.037 116.9C688.424 117.127 687.744 117.24 686.997 117.24ZM698.223 117.24C697.063 117.24 696.05 116.967 695.183 116.42C694.33 115.86 693.743 115.107 693.423 114.16L695.383 113.22C695.663 113.833 696.05 114.313 696.543 114.66C697.05 115.007 697.61 115.18 698.223 115.18C698.703 115.18 699.083 115.073 699.363 114.86C699.643 114.647 699.783 114.367 699.783 114.02C699.783 113.807 699.723 113.633 699.603 113.5C699.497 113.353 699.343 113.233 699.143 113.14C698.957 113.033 698.75 112.947 698.523 112.88L696.743 112.38C695.823 112.113 695.123 111.707 694.643 111.16C694.177 110.613 693.943 109.967 693.943 109.22C693.943 108.553 694.11 107.973 694.443 107.48C694.79 106.973 695.263 106.58 695.863 106.3C696.477 106.02 697.177 105.88 697.963 105.88C698.99 105.88 699.897 106.127 700.683 106.62C701.47 107.113 702.03 107.807 702.363 108.7L700.363 109.64C700.177 109.147 699.863 108.753 699.423 108.46C698.983 108.167 698.49 108.02 697.943 108.02C697.503 108.02 697.157 108.12 696.903 108.32C696.65 108.52 696.523 108.78 696.523 109.1C696.523 109.3 696.577 109.473 696.683 109.62C696.79 109.767 696.937 109.887 697.123 109.98C697.323 110.073 697.55 110.16 697.803 110.24L699.543 110.76C700.437 111.027 701.123 111.427 701.603 111.96C702.097 112.493 702.343 113.147 702.343 113.92C702.343 114.573 702.17 115.153 701.823 115.66C701.477 116.153 700.997 116.54 700.383 116.82C699.77 117.1 699.05 117.24 698.223 117.24ZM709.677 117.24C708.61 117.24 707.637 116.993 706.757 116.5C705.89 116.007 705.197 115.333 704.677 114.48C704.17 113.627 703.917 112.653 703.917 111.56C703.917 110.467 704.17 109.493 704.677 108.64C705.197 107.787 705.89 107.113 706.757 106.62C707.623 106.127 708.597 105.88 709.677 105.88C710.743 105.88 711.71 106.127 712.577 106.62C713.443 107.113 714.13 107.787 714.637 108.64C715.157 109.48 715.417 110.453 715.417 111.56C715.417 112.653 715.157 113.627 714.637 114.48C714.117 115.333 713.423 116.007 712.557 116.5C711.69 116.993 710.73 117.24 709.677 117.24ZM709.677 114.84C710.263 114.84 710.777 114.7 711.217 114.42C711.67 114.14 712.023 113.753 712.277 113.26C712.543 112.753 712.677 112.187 712.677 111.56C712.677 110.92 712.543 110.36 712.277 109.88C712.023 109.387 711.67 109 711.217 108.72C710.777 108.427 710.263 108.28 709.677 108.28C709.077 108.28 708.55 108.427 708.097 108.72C707.643 109 707.283 109.387 707.017 109.88C706.763 110.36 706.637 110.92 706.637 111.56C706.637 112.187 706.763 112.753 707.017 113.26C707.283 113.753 707.643 114.14 708.097 114.42C708.55 114.7 709.077 114.84 709.677 114.84ZM721.284 117.24C720.444 117.24 719.71 117.053 719.084 116.68C718.47 116.307 717.997 115.787 717.664 115.12C717.344 114.453 717.184 113.673 717.184 112.78V106.12H719.804V112.56C719.804 113.013 719.89 113.413 720.064 113.76C720.25 114.093 720.51 114.36 720.844 114.56C721.19 114.747 721.577 114.84 722.004 114.84C722.43 114.84 722.81 114.747 723.144 114.56C723.477 114.36 723.737 114.087 723.924 113.74C724.11 113.393 724.204 112.98 724.204 112.5V106.12H726.824V117H724.344V114.86L724.564 115.24C724.31 115.907 723.89 116.407 723.304 116.74C722.73 117.073 722.057 117.24 721.284 117.24ZM729.259 117V106.12H731.719V108.54L731.519 108.18C731.772 107.367 732.166 106.8 732.699 106.48C733.246 106.16 733.899 106 734.659 106H735.299V108.32H734.359C733.612 108.32 733.012 108.553 732.559 109.02C732.106 109.473 731.879 110.113 731.879 110.94V117H729.259ZM741.98 117.24C740.9 117.24 739.926 116.993 739.06 116.5C738.206 115.993 737.533 115.313 737.04 114.46C736.546 113.593 736.3 112.62 736.3 111.54C736.3 110.46 736.546 109.493 737.04 108.64C737.533 107.787 738.206 107.113 739.06 106.62C739.926 106.127 740.9 105.88 741.98 105.88C742.753 105.88 743.473 106.02 744.14 106.3C744.806 106.567 745.38 106.94 745.86 107.42C746.353 107.887 746.706 108.447 746.92 109.1L744.62 110.1C744.42 109.553 744.08 109.113 743.6 108.78C743.133 108.447 742.593 108.28 741.98 108.28C741.406 108.28 740.893 108.42 740.44 108.7C740 108.98 739.653 109.367 739.4 109.86C739.146 110.353 739.02 110.92 739.02 111.56C739.02 112.2 739.146 112.767 739.4 113.26C739.653 113.753 740 114.14 740.44 114.42C740.893 114.7 741.406 114.84 741.98 114.84C742.606 114.84 743.153 114.673 743.62 114.34C744.086 114.007 744.42 113.56 744.62 113L746.92 114.04C746.706 114.653 746.36 115.207 745.88 115.7C745.4 116.18 744.826 116.56 744.16 116.84C743.493 117.107 742.766 117.24 741.98 117.24ZM754.068 117.24C752.948 117.24 751.968 116.987 751.128 116.48C750.288 115.973 749.634 115.287 749.168 114.42C748.701 113.553 748.468 112.593 748.468 111.54C748.468 110.447 748.701 109.48 749.168 108.64C749.648 107.787 750.294 107.113 751.108 106.62C751.934 106.127 752.854 105.88 753.868 105.88C754.721 105.88 755.468 106.02 756.108 106.3C756.761 106.58 757.314 106.967 757.768 107.46C758.221 107.953 758.568 108.52 758.808 109.16C759.048 109.787 759.168 110.467 759.168 111.2C759.168 111.387 759.154 111.58 759.128 111.78C759.114 111.98 759.081 112.153 759.028 112.3H750.627V110.3H757.548L756.308 111.24C756.428 110.627 756.394 110.08 756.208 109.6C756.034 109.12 755.741 108.74 755.328 108.46C754.928 108.18 754.441 108.04 753.868 108.04C753.321 108.04 752.834 108.18 752.408 108.46C751.981 108.727 751.654 109.127 751.428 109.66C751.214 110.18 751.134 110.813 751.188 111.56C751.134 112.227 751.221 112.82 751.448 113.34C751.688 113.847 752.034 114.24 752.488 114.52C752.954 114.8 753.488 114.94 754.088 114.94C754.688 114.94 755.194 114.813 755.608 114.56C756.034 114.307 756.368 113.967 756.608 113.54L758.728 114.58C758.514 115.1 758.181 115.56 757.728 115.96C757.274 116.36 756.734 116.673 756.108 116.9C755.494 117.127 754.814 117.24 754.068 117.24ZM765.294 117.24C764.134 117.24 763.12 116.967 762.254 116.42C761.4 115.86 760.814 115.107 760.494 114.16L762.454 113.22C762.734 113.833 763.12 114.313 763.614 114.66C764.12 115.007 764.68 115.18 765.294 115.18C765.774 115.18 766.154 115.073 766.434 114.86C766.714 114.647 766.854 114.367 766.854 114.02C766.854 113.807 766.794 113.633 766.674 113.5C766.567 113.353 766.414 113.233 766.214 113.14C766.027 113.033 765.82 112.947 765.594 112.88L763.814 112.38C762.894 112.113 762.194 111.707 761.714 111.16C761.247 110.613 761.014 109.967 761.014 109.22C761.014 108.553 761.18 107.973 761.514 107.48C761.86 106.973 762.334 106.58 762.934 106.3C763.547 106.02 764.247 105.88 765.034 105.88C766.06 105.88 766.967 106.127 767.754 106.62C768.54 107.113 769.1 107.807 769.434 108.7L767.434 109.64C767.247 109.147 766.934 108.753 766.494 108.46C766.054 108.167 765.56 108.02 765.014 108.02C764.574 108.02 764.227 108.12 763.974 108.32C763.72 108.52 763.594 108.78 763.594 109.1C763.594 109.3 763.647 109.473 763.754 109.62C763.86 109.767 764.007 109.887 764.194 109.98C764.394 110.073 764.62 110.16 764.874 110.24L766.614 110.76C767.507 111.027 768.194 111.427 768.674 111.96C769.167 112.493 769.414 113.147 769.414 113.92C769.414 114.573 769.24 115.153 768.894 115.66C768.547 116.153 768.067 116.54 767.454 116.82C766.84 117.1 766.12 117.24 765.294 117.24Z" fill="white"/>
<path d="M668.198 170L673.004 156.59H675.092L679.898 170H678.008L676.91 166.85H671.186L670.088 170H668.198ZM671.744 165.23H676.352L673.796 157.868H674.3L671.744 165.23ZM686.412 170.216C685.632 170.216 684.918 170.042 684.27 169.694C683.634 169.346 683.142 168.854 682.794 168.218L683.028 167.93V170H681.39V156.374H683.064V162.386L682.812 161.972C683.172 161.396 683.664 160.94 684.288 160.604C684.912 160.256 685.626 160.082 686.43 160.082C687.342 160.082 688.158 160.304 688.878 160.748C689.61 161.192 690.186 161.798 690.606 162.566C691.026 163.322 691.236 164.186 691.236 165.158C691.236 166.106 691.026 166.964 690.606 167.732C690.186 168.5 689.61 169.106 688.878 169.55C688.158 169.994 687.336 170.216 686.412 170.216ZM686.286 168.596C686.898 168.596 687.444 168.446 687.924 168.146C688.404 167.846 688.776 167.438 689.04 166.922C689.316 166.394 689.454 165.806 689.454 165.158C689.454 164.486 689.316 163.898 689.04 163.394C688.776 162.878 688.404 162.47 687.924 162.17C687.444 161.858 686.898 161.702 686.286 161.702C685.674 161.702 685.122 161.852 684.63 162.152C684.15 162.452 683.766 162.866 683.478 163.394C683.202 163.91 683.064 164.498 683.064 165.158C683.064 165.806 683.202 166.394 683.478 166.922C683.766 167.438 684.15 167.846 684.63 168.146C685.122 168.446 685.674 168.596 686.286 168.596ZM698.039 170.216C697.103 170.216 696.257 170 695.501 169.568C694.745 169.124 694.145 168.518 693.701 167.75C693.257 166.982 693.035 166.112 693.035 165.14C693.035 164.168 693.251 163.304 693.683 162.548C694.127 161.792 694.727 161.192 695.483 160.748C696.239 160.304 697.091 160.082 698.039 160.082C698.975 160.082 699.821 160.304 700.577 160.748C701.333 161.18 701.927 161.774 702.359 162.53C702.803 163.286 703.025 164.156 703.025 165.14C703.025 166.124 702.797 167 702.341 167.768C701.885 168.524 701.279 169.124 700.523 169.568C699.779 170 698.951 170.216 698.039 170.216ZM698.039 168.596C698.639 168.596 699.179 168.446 699.659 168.146C700.151 167.846 700.535 167.432 700.811 166.904C701.099 166.376 701.243 165.788 701.243 165.14C701.243 164.48 701.099 163.898 700.811 163.394C700.535 162.878 700.151 162.47 699.659 162.17C699.179 161.858 698.639 161.702 698.039 161.702C697.427 161.702 696.875 161.858 696.383 162.17C695.903 162.47 695.519 162.878 695.231 163.394C694.943 163.898 694.799 164.48 694.799 165.14C694.799 165.788 694.943 166.376 695.231 166.904C695.519 167.432 695.903 167.846 696.383 168.146C696.875 168.446 697.427 168.596 698.039 168.596ZM708.646 170.216C707.95 170.216 707.32 170.054 706.756 169.73C706.204 169.406 705.772 168.956 705.46 168.38C705.16 167.792 705.01 167.12 705.01 166.364V160.298H706.684V166.184C706.684 166.664 706.78 167.084 706.972 167.444C707.176 167.804 707.452 168.086 707.8 168.29C708.16 168.494 708.568 168.596 709.024 168.596C709.48 168.596 709.882 168.494 710.23 168.29C710.59 168.086 710.866 167.792 711.058 167.408C711.262 167.024 711.364 166.568 711.364 166.04V160.298H713.056V170H711.418V168.11L711.688 168.272C711.46 168.884 711.07 169.364 710.518 169.712C709.978 170.048 709.354 170.216 708.646 170.216ZM719.592 170.108C718.644 170.108 717.912 169.838 717.396 169.298C716.892 168.758 716.64 167.996 716.64 167.012V161.9H714.876V160.298H715.236C715.668 160.298 716.01 160.166 716.262 159.902C716.514 159.638 716.64 159.29 716.64 158.858V158.066H718.314V160.298H720.492V161.9H718.314V166.958C718.314 167.282 718.362 167.564 718.458 167.804C718.566 168.044 718.74 168.236 718.98 168.38C719.22 168.512 719.538 168.578 719.934 168.578C720.018 168.578 720.12 168.572 720.24 168.56C720.372 168.548 720.492 168.536 720.6 168.524V170C720.444 170.036 720.27 170.06 720.078 170.072C719.886 170.096 719.724 170.108 719.592 170.108ZM729.336 170.216C728.64 170.216 728.01 170.054 727.446 169.73C726.894 169.406 726.462 168.956 726.15 168.38C725.85 167.792 725.7 167.12 725.7 166.364V160.298H727.374V166.184C727.374 166.664 727.47 167.084 727.662 167.444C727.866 167.804 728.142 168.086 728.49 168.29C728.85 168.494 729.258 168.596 729.714 168.596C730.17 168.596 730.572 168.494 730.92 168.29C731.28 168.086 731.556 167.792 731.748 167.408C731.952 167.024 732.054 166.568 732.054 166.04V160.298H733.746V170H732.108V168.11L732.378 168.272C732.15 168.884 731.76 169.364 731.208 169.712C730.668 170.048 730.044 170.216 729.336 170.216ZM739.813 170.216C738.841 170.216 737.995 169.976 737.275 169.496C736.555 169.016 736.045 168.368 735.745 167.552L737.077 166.904C737.353 167.48 737.731 167.936 738.211 168.272C738.691 168.608 739.225 168.776 739.813 168.776C740.341 168.776 740.779 168.65 741.127 168.398C741.475 168.146 741.649 167.816 741.649 167.408C741.649 167.12 741.565 166.892 741.397 166.724C741.241 166.544 741.049 166.406 740.821 166.31C740.593 166.202 740.383 166.124 740.191 166.076L738.733 165.662C737.857 165.41 737.215 165.05 736.807 164.582C736.411 164.114 736.213 163.568 736.213 162.944C736.213 162.368 736.357 161.87 736.645 161.45C736.945 161.018 737.347 160.682 737.851 160.442C738.367 160.202 738.943 160.082 739.579 160.082C740.431 160.082 741.193 160.298 741.865 160.73C742.549 161.162 743.035 161.768 743.323 162.548L741.955 163.178C741.739 162.674 741.415 162.278 740.983 161.99C740.551 161.69 740.065 161.54 739.525 161.54C739.033 161.54 738.643 161.666 738.355 161.918C738.067 162.158 737.923 162.464 737.923 162.836C737.923 163.112 737.995 163.34 738.139 163.52C738.283 163.688 738.457 163.82 738.661 163.916C738.865 164 739.063 164.072 739.255 164.132L740.839 164.6C741.631 164.828 742.243 165.182 742.675 165.662C743.119 166.142 743.341 166.718 743.341 167.39C743.341 167.93 743.191 168.416 742.891 168.848C742.591 169.28 742.177 169.616 741.649 169.856C741.121 170.096 740.509 170.216 739.813 170.216Z" fill="#A1A8B7"/>
<path d="M1056.44 121.24C1055.37 121.24 1054.39 121.047 1053.48 120.66C1052.59 120.273 1051.8 119.733 1051.12 119.04C1050.45 118.347 1049.93 117.533 1049.56 116.6C1049.19 115.667 1049 114.647 1049 113.54C1049 112.433 1049.18 111.413 1049.54 110.48C1049.91 109.533 1050.43 108.72 1051.1 108.04C1051.78 107.347 1052.57 106.813 1053.48 106.44C1054.39 106.053 1055.37 105.86 1056.44 105.86C1057.51 105.86 1058.46 106.04 1059.3 106.4C1060.15 106.76 1060.87 107.24 1061.46 107.84C1062.05 108.427 1062.47 109.073 1062.72 109.78L1060.28 110.92C1060 110.173 1059.53 109.56 1058.86 109.08C1058.19 108.587 1057.39 108.34 1056.44 108.34C1055.51 108.34 1054.68 108.56 1053.96 109C1053.25 109.44 1052.7 110.047 1052.3 110.82C1051.91 111.593 1051.72 112.5 1051.72 113.54C1051.72 114.58 1051.91 115.493 1052.3 116.28C1052.7 117.053 1053.25 117.66 1053.96 118.1C1054.68 118.54 1055.51 118.76 1056.44 118.76C1057.39 118.76 1058.19 118.52 1058.86 118.04C1059.53 117.547 1060 116.927 1060.28 116.18L1062.72 117.32C1062.47 118.027 1062.05 118.68 1061.46 119.28C1060.87 119.867 1060.15 120.34 1059.3 120.7C1058.46 121.06 1057.51 121.24 1056.44 121.24ZM1069.83 121.24C1068.77 121.24 1067.79 120.993 1066.91 120.5C1066.05 120.007 1065.35 119.333 1064.83 118.48C1064.33 117.627 1064.07 116.653 1064.07 115.56C1064.07 114.467 1064.33 113.493 1064.83 112.64C1065.35 111.787 1066.05 111.113 1066.91 110.62C1067.78 110.127 1068.75 109.88 1069.83 109.88C1070.9 109.88 1071.87 110.127 1072.73 110.62C1073.6 111.113 1074.29 111.787 1074.79 112.64C1075.31 113.48 1075.57 114.453 1075.57 115.56C1075.57 116.653 1075.31 117.627 1074.79 118.48C1074.27 119.333 1073.58 120.007 1072.71 120.5C1071.85 120.993 1070.89 121.24 1069.83 121.24ZM1069.83 118.84C1070.42 118.84 1070.93 118.7 1071.37 118.42C1071.83 118.14 1072.18 117.753 1072.43 117.26C1072.7 116.753 1072.83 116.187 1072.83 115.56C1072.83 114.92 1072.7 114.36 1072.43 113.88C1072.18 113.387 1071.83 113 1071.37 112.72C1070.93 112.427 1070.42 112.28 1069.83 112.28C1069.23 112.28 1068.71 112.427 1068.25 112.72C1067.8 113 1067.44 113.387 1067.17 113.88C1066.92 114.36 1066.79 114.92 1066.79 115.56C1066.79 116.187 1066.92 116.753 1067.17 117.26C1067.44 117.753 1067.8 118.14 1068.25 118.42C1068.71 118.7 1069.23 118.84 1069.83 118.84ZM1077.56 121V110.12H1080.02V112.26L1079.82 111.88C1080.07 111.227 1080.49 110.733 1081.06 110.4C1081.65 110.053 1082.33 109.88 1083.1 109.88C1083.9 109.88 1084.61 110.053 1085.22 110.4C1085.85 110.747 1086.33 111.233 1086.68 111.86C1087.03 112.473 1087.2 113.187 1087.2 114V121H1084.58V114.62C1084.58 114.14 1084.49 113.727 1084.3 113.38C1084.11 113.033 1083.85 112.767 1083.52 112.58C1083.2 112.38 1082.82 112.28 1082.38 112.28C1081.95 112.28 1081.57 112.38 1081.24 112.58C1080.91 112.767 1080.65 113.033 1080.46 113.38C1080.27 113.727 1080.18 114.14 1080.18 114.62V121H1077.56ZM1089.42 121V110.12H1091.88V112.26L1091.68 111.88C1091.93 111.227 1092.34 110.733 1092.92 110.4C1093.5 110.053 1094.18 109.88 1094.96 109.88C1095.76 109.88 1096.46 110.053 1097.08 110.4C1097.7 110.747 1098.19 111.233 1098.54 111.86C1098.88 112.473 1099.06 113.187 1099.06 114V121H1096.44V114.62C1096.44 114.14 1096.34 113.727 1096.16 113.38C1095.97 113.033 1095.71 112.767 1095.38 112.58C1095.06 112.38 1094.68 112.28 1094.24 112.28C1093.81 112.28 1093.43 112.38 1093.1 112.58C1092.76 112.767 1092.5 113.033 1092.32 113.38C1092.13 113.727 1092.04 114.14 1092.04 114.62V121H1089.42ZM1106.43 121.24C1105.31 121.24 1104.33 120.987 1103.49 120.48C1102.65 119.973 1102 119.287 1101.53 118.42C1101.06 117.553 1100.83 116.593 1100.83 115.54C1100.83 114.447 1101.06 113.48 1101.53 112.64C1102.01 111.787 1102.66 111.113 1103.47 110.62C1104.3 110.127 1105.22 109.88 1106.23 109.88C1107.08 109.88 1107.83 110.02 1108.47 110.3C1109.12 110.58 1109.68 110.967 1110.13 111.46C1110.58 111.953 1110.93 112.52 1111.17 113.16C1111.41 113.787 1111.53 114.467 1111.53 115.2C1111.53 115.387 1111.52 115.58 1111.49 115.78C1111.48 115.98 1111.44 116.153 1111.39 116.3H1102.99V114.3H1109.91L1108.67 115.24C1108.79 114.627 1108.76 114.08 1108.57 113.6C1108.4 113.12 1108.1 112.74 1107.69 112.46C1107.29 112.18 1106.8 112.04 1106.23 112.04C1105.68 112.04 1105.2 112.18 1104.77 112.46C1104.34 112.727 1104.02 113.127 1103.79 113.66C1103.58 114.18 1103.5 114.813 1103.55 115.56C1103.5 116.227 1103.58 116.82 1103.81 117.34C1104.05 117.847 1104.4 118.24 1104.85 118.52C1105.32 118.8 1105.85 118.94 1106.45 118.94C1107.05 118.94 1107.56 118.813 1107.97 118.56C1108.4 118.307 1108.73 117.967 1108.97 117.54L1111.09 118.58C1110.88 119.1 1110.54 119.56 1110.09 119.96C1109.64 120.36 1109.1 120.673 1108.47 120.9C1107.86 121.127 1107.18 121.24 1106.43 121.24ZM1118.76 121.24C1117.68 121.24 1116.7 120.993 1115.84 120.5C1114.98 119.993 1114.31 119.313 1113.82 118.46C1113.32 117.593 1113.08 116.62 1113.08 115.54C1113.08 114.46 1113.32 113.493 1113.82 112.64C1114.31 111.787 1114.98 111.113 1115.84 110.62C1116.7 110.127 1117.68 109.88 1118.76 109.88C1119.53 109.88 1120.25 110.02 1120.92 110.3C1121.58 110.567 1122.16 110.94 1122.64 111.42C1123.13 111.887 1123.48 112.447 1123.7 113.1L1121.4 114.1C1121.2 113.553 1120.86 113.113 1120.38 112.78C1119.91 112.447 1119.37 112.28 1118.76 112.28C1118.18 112.28 1117.67 112.42 1117.22 112.7C1116.78 112.98 1116.43 113.367 1116.18 113.86C1115.92 114.353 1115.8 114.92 1115.8 115.56C1115.8 116.2 1115.92 116.767 1116.18 117.26C1116.43 117.753 1116.78 118.14 1117.22 118.42C1117.67 118.7 1118.18 118.84 1118.76 118.84C1119.38 118.84 1119.93 118.673 1120.4 118.34C1120.86 118.007 1121.2 117.56 1121.4 117L1123.7 118.04C1123.48 118.653 1123.14 119.207 1122.66 119.7C1122.18 120.18 1121.6 120.56 1120.94 120.84C1120.27 121.107 1119.54 121.24 1118.76 121.24ZM1130.64 121.12C1129.42 121.12 1128.46 120.787 1127.78 120.12C1127.12 119.44 1126.78 118.487 1126.78 117.26V112.46H1124.9V110.12H1125.1C1125.64 110.12 1126.05 109.98 1126.34 109.7C1126.64 109.42 1126.78 109.013 1126.78 108.48V107.64H1129.4V110.12H1131.9V112.46H1129.4V117.12C1129.4 117.48 1129.46 117.787 1129.58 118.04C1129.72 118.293 1129.92 118.487 1130.18 118.62C1130.46 118.753 1130.82 118.82 1131.24 118.82C1131.34 118.82 1131.44 118.813 1131.56 118.8C1131.7 118.787 1131.82 118.773 1131.94 118.76V121C1131.76 121.027 1131.54 121.053 1131.3 121.08C1131.06 121.107 1130.84 121.12 1130.64 121.12ZM1140.24 121L1136.5 110.12H1139.26L1142 118.38L1141.04 118.36L1143.96 110.12H1146.28L1149.18 118.36L1148.22 118.38L1150.96 110.12H1153.72L1149.98 121H1147.64L1144.68 112.38H1145.56L1142.56 121H1140.24ZM1155.16 121V110.12H1157.78V121H1155.16ZM1155.16 108.9V106.1H1157.78V108.9H1155.16ZM1165.16 121.12C1163.93 121.12 1162.98 120.787 1162.3 120.12C1161.63 119.44 1161.3 118.487 1161.3 117.26V112.46H1159.42V110.12H1159.62C1160.15 110.12 1160.56 109.98 1160.86 109.7C1161.15 109.42 1161.3 109.013 1161.3 108.48V107.64H1163.92V110.12H1166.42V112.46H1163.92V117.12C1163.92 117.48 1163.98 117.787 1164.1 118.04C1164.23 118.293 1164.43 118.487 1164.7 118.62C1164.98 118.753 1165.33 118.82 1165.76 118.82C1165.85 118.82 1165.96 118.813 1166.08 118.8C1166.21 118.787 1166.34 118.773 1166.46 118.76V121C1166.27 121.027 1166.06 121.053 1165.82 121.08C1165.58 121.107 1165.36 121.12 1165.16 121.12ZM1168.46 121V105.86H1171.08V112.26L1170.72 111.88C1170.97 111.227 1171.38 110.733 1171.96 110.4C1172.54 110.053 1173.22 109.88 1174 109.88C1174.8 109.88 1175.5 110.053 1176.12 110.4C1176.74 110.747 1177.23 111.233 1177.58 111.86C1177.92 112.473 1178.1 113.187 1178.1 114V121H1175.48V114.62C1175.48 114.14 1175.38 113.727 1175.2 113.38C1175.01 113.033 1174.75 112.767 1174.42 112.58C1174.1 112.38 1173.72 112.28 1173.28 112.28C1172.85 112.28 1172.47 112.38 1172.14 112.58C1171.8 112.767 1171.54 113.033 1171.36 113.38C1171.17 113.727 1171.08 114.14 1171.08 114.62V121H1168.46ZM1187.75 121.24C1186.91 121.24 1186.18 121.053 1185.55 120.68C1184.94 120.307 1184.46 119.787 1184.13 119.12C1183.81 118.453 1183.65 117.673 1183.65 116.78V110.12H1186.27V116.56C1186.27 117.013 1186.36 117.413 1186.53 117.76C1186.72 118.093 1186.98 118.36 1187.31 118.56C1187.66 118.747 1188.04 118.84 1188.47 118.84C1188.9 118.84 1189.28 118.747 1189.61 118.56C1189.94 118.36 1190.2 118.087 1190.39 117.74C1190.58 117.393 1190.67 116.98 1190.67 116.5V110.12H1193.29V121H1190.81V118.86L1191.03 119.24C1190.78 119.907 1190.36 120.407 1189.77 120.74C1189.2 121.073 1188.52 121.24 1187.75 121.24ZM1199.86 121.24C1198.7 121.24 1197.69 120.967 1196.82 120.42C1195.97 119.86 1195.38 119.107 1195.06 118.16L1197.02 117.22C1197.3 117.833 1197.69 118.313 1198.18 118.66C1198.69 119.007 1199.25 119.18 1199.86 119.18C1200.34 119.18 1200.72 119.073 1201 118.86C1201.28 118.647 1201.42 118.367 1201.42 118.02C1201.42 117.807 1201.36 117.633 1201.24 117.5C1201.14 117.353 1200.98 117.233 1200.78 117.14C1200.6 117.033 1200.39 116.947 1200.16 116.88L1198.38 116.38C1197.46 116.113 1196.76 115.707 1196.28 115.16C1195.82 114.613 1195.58 113.967 1195.58 113.22C1195.58 112.553 1195.75 111.973 1196.08 111.48C1196.43 110.973 1196.9 110.58 1197.5 110.3C1198.12 110.02 1198.82 109.88 1199.6 109.88C1200.63 109.88 1201.54 110.127 1202.32 110.62C1203.11 111.113 1203.67 111.807 1204 112.7L1202 113.64C1201.82 113.147 1201.5 112.753 1201.06 112.46C1200.62 112.167 1200.13 112.02 1199.58 112.02C1199.14 112.02 1198.8 112.12 1198.54 112.32C1198.29 112.52 1198.16 112.78 1198.16 113.1C1198.16 113.3 1198.22 113.473 1198.32 113.62C1198.43 113.767 1198.58 113.887 1198.76 113.98C1198.96 114.073 1199.19 114.16 1199.44 114.24L1201.18 114.76C1202.08 115.027 1202.76 115.427 1203.24 115.96C1203.74 116.493 1203.98 117.147 1203.98 117.92C1203.98 118.573 1203.81 119.153 1203.46 119.66C1203.12 120.153 1202.64 120.54 1202.02 120.82C1201.41 121.1 1200.69 121.24 1199.86 121.24Z" fill="white"/>
<path d="M1061.94 179.642C1060.88 179.641 1059.82 179.556 1058.77 179.39C1057.24 179.092 1055.78 178.558 1054.42 177.807L1053 177.029L1054.54 176.523C1056.22 175.97 1057.24 175.623 1058.51 175.089C1057.87 174.775 1057.3 174.334 1056.83 173.793C1056.36 173.251 1056.01 172.621 1055.8 171.94L1055.44 170.853L1055.73 170.898C1055.48 170.646 1055.26 170.37 1055.06 170.073C1054.47 169.187 1054.16 168.133 1054.2 167.063L1054.27 166.114L1054.83 166.334C1054.59 165.881 1054.42 165.395 1054.32 164.891C1054.07 163.627 1054.28 162.318 1054.9 161.191L1055.4 160.287L1056.06 161.087C1058.02 163.527 1060.84 165.118 1063.94 165.53C1063.81 164.684 1063.91 163.817 1064.23 163.022C1064.62 162.107 1065.29 161.34 1066.14 160.829C1067.14 160.224 1068.3 159.938 1069.46 160.011C1070.67 160.074 1071.82 160.55 1072.73 161.358C1073.13 161.248 1073.53 161.115 1073.93 160.958C1074.19 160.858 1074.49 160.747 1074.86 160.619L1076.22 160.148L1075.33 162.7C1075.39 162.7 1075.45 162.691 1075.51 162.688L1076.98 162.624L1076.11 163.807C1076.06 163.875 1076.05 163.894 1076.03 163.921C1075.96 164.026 1075.87 164.157 1074.69 165.743C1074.38 166.165 1074.24 166.681 1074.27 167.2C1074.4 169.08 1074.14 170.966 1073.52 172.742C1072.97 174.237 1072.07 175.575 1070.89 176.642C1069.32 178.004 1067.42 178.921 1065.39 179.3C1064.25 179.531 1063.1 179.646 1061.94 179.642Z" fill="white"/>
<g clip-path="url(#clip1_19_154)">
<path d="M1135.41 158.01H1132.3C1128.81 158.01 1126.55 160.328 1126.55 163.916V166.639H1123.42C1123.36 166.639 1123.3 166.651 1123.24 166.676C1123.18 166.701 1123.12 166.737 1123.08 166.782C1123.03 166.828 1123 166.882 1122.97 166.941C1122.95 167.001 1122.94 167.064 1122.94 167.129V171.075C1122.94 171.204 1122.99 171.329 1123.08 171.421C1123.17 171.512 1123.29 171.564 1123.42 171.564H1126.55V181.52C1126.55 181.584 1126.57 181.648 1126.59 181.707C1126.62 181.766 1126.65 181.82 1126.7 181.866C1126.74 181.911 1126.8 181.947 1126.86 181.972C1126.92 181.996 1126.98 182.009 1127.04 182.009H1131.12C1131.19 182.009 1131.25 181.996 1131.31 181.972C1131.37 181.947 1131.42 181.911 1131.47 181.866C1131.51 181.82 1131.55 181.766 1131.57 181.707C1131.6 181.648 1131.61 181.584 1131.61 181.52V171.564H1135.27C1135.4 171.564 1135.52 171.512 1135.61 171.421C1135.7 171.329 1135.75 171.204 1135.75 171.075V167.129C1135.75 166.999 1135.7 166.874 1135.61 166.782C1135.52 166.69 1135.39 166.639 1135.26 166.639H1131.61V164.331C1131.61 163.221 1131.87 162.658 1133.32 162.658H1135.41C1135.54 162.658 1135.67 162.606 1135.76 162.515C1135.85 162.423 1135.9 162.298 1135.9 162.169V158.504C1135.9 158.439 1135.89 158.374 1135.87 158.314C1135.84 158.254 1135.81 158.199 1135.76 158.153C1135.71 158.107 1135.66 158.071 1135.6 158.046C1135.54 158.022 1135.47 158.009 1135.41 158.01Z" fill="white"/>
</g>
<g clip-path="url(#clip2_19_154)">
<path d="M1192.99 163.836C1191.77 163.837 1190.58 164.198 1189.57 164.875C1188.56 165.552 1187.77 166.514 1187.31 167.639C1186.84 168.764 1186.72 170.002 1186.96 171.196C1187.2 172.39 1187.78 173.487 1188.64 174.348C1189.5 175.209 1190.6 175.796 1191.79 176.033C1192.98 176.271 1194.22 176.15 1195.34 175.684C1196.47 175.218 1197.43 174.43 1198.1 173.418C1198.78 172.406 1199.14 171.216 1199.14 169.998C1199.14 169.189 1198.98 168.387 1198.68 167.639C1198.37 166.891 1197.91 166.212 1197.34 165.639C1196.77 165.067 1196.09 164.613 1195.34 164.304C1194.6 163.994 1193.8 163.835 1192.99 163.836ZM1192.99 173.991C1192.2 173.991 1191.42 173.756 1190.77 173.317C1190.11 172.877 1189.6 172.253 1189.3 171.522C1188.99 170.791 1188.91 169.987 1189.07 169.211C1189.22 168.435 1189.6 167.722 1190.16 167.163C1190.72 166.603 1191.43 166.222 1192.21 166.068C1192.98 165.913 1193.79 165.993 1194.52 166.295C1195.25 166.598 1195.87 167.111 1196.31 167.769C1196.75 168.426 1196.98 169.2 1196.98 169.991C1196.98 171.052 1196.56 172.069 1195.81 172.819C1195.06 173.57 1194.05 173.991 1192.99 173.991Z" fill="white"/>
<path d="M1197.93 158.075C1195.72 157.975 1190.26 157.975 1188.05 158.075C1186.19 158.042 1184.38 158.738 1183.02 160.016C1180.72 162.324 1181.01 165.434 1181.01 169.999C1181.01 174.667 1180.75 177.705 1183.02 179.978C1185.34 182.289 1188.49 181.986 1192.99 181.986C1197.61 181.986 1199.2 181.986 1200.83 181.356C1203.06 180.493 1204.73 178.506 1204.9 174.937C1205 172.728 1205 167.26 1204.9 165.05C1204.7 160.837 1202.44 158.282 1197.93 158.074L1197.93 158.075ZM1201.42 178.446C1199.91 179.959 1197.81 179.824 1192.96 179.824C1187.97 179.824 1185.97 179.898 1184.5 178.431C1182.82 176.754 1183.13 174.061 1183.13 169.978C1183.13 164.453 1182.56 160.478 1188.1 160.19C1189.37 160.145 1189.75 160.13 1192.95 160.13L1192.99 160.16C1198.32 160.16 1202.49 159.602 1202.74 165.146C1202.8 166.411 1202.81 166.791 1202.81 169.993C1202.81 174.935 1202.91 176.952 1201.42 178.446Z" fill="white"/>
<path d="M1199.39 165.032C1200.18 165.032 1200.82 164.388 1200.82 163.593C1200.82 162.799 1200.18 162.154 1199.39 162.154C1198.59 162.154 1197.95 162.799 1197.95 163.593C1197.95 164.388 1198.59 165.032 1199.39 165.032Z" fill="white"/>
</g>
<path d="M112 123.392V96.3033H121.343C122.508 96.2952 123.664 96.4999 124.756 96.9075C125.79 97.2907 126.742 97.8677 127.562 98.6078C128.395 99.3682 129.057 100.298 129.505 101.335C129.952 102.372 130.175 103.493 130.158 104.624C130.17 105.747 129.944 106.861 129.497 107.891C129.05 108.921 128.39 109.845 127.562 110.601C126.742 111.341 125.79 111.918 124.756 112.301C123.665 112.709 122.509 112.914 121.345 112.906H116.257V123.386L112 123.392ZM121.456 108.826C122.102 108.838 122.743 108.717 123.34 108.47C123.866 108.248 124.341 107.92 124.734 107.505C125.105 107.111 125.399 106.649 125.6 106.145C125.796 105.664 125.898 105.151 125.901 104.632C125.898 103.552 125.48 102.515 124.734 101.736C124.308 101.301 123.798 100.958 123.235 100.727C122.672 100.496 122.068 100.383 121.461 100.394H116.257V108.83L121.456 108.826Z" fill="white"/>
<path d="M133.473 104.854V123.392H137.656V104.854H133.473Z" fill="white"/>
<path d="M138.361 98.8345C138.367 99.2062 138.299 99.5754 138.16 99.9199C138.021 100.264 137.814 100.577 137.552 100.84C137.298 101.109 136.99 101.322 136.65 101.465C136.309 101.608 135.942 101.679 135.573 101.672V96.0006C135.942 95.9941 136.309 96.0646 136.649 96.2079C136.99 96.3511 137.297 96.5639 137.552 96.8327C137.813 97.0948 138.02 97.4072 138.159 97.7511C138.298 98.0949 138.367 98.4634 138.361 98.8345Z" fill="#35AF39"/>
<path d="M135.57 96.0006V101.675C135.196 101.684 134.824 101.614 134.478 101.471C134.132 101.328 133.82 101.114 133.56 100.843C133.297 100.581 133.089 100.268 132.949 99.9223C132.81 99.5771 132.741 99.2071 132.748 98.8345C132.742 98.4631 132.811 98.0945 132.951 97.7506C133.091 97.4066 133.298 97.0944 133.56 96.8327C133.82 96.5622 134.132 96.3486 134.478 96.2054C134.824 96.0622 135.196 95.9925 135.57 96.0006Z" fill="#35AF39"/>
<path d="M146.849 113.971L140.481 104.854H145.342L149.334 110.718H149.447L153.172 104.854H158.22L151.778 113.971L158.333 123.392H153.366L149.373 117.339H149.26L145.3 123.392H140.368L146.849 113.971Z" fill="white"/>
<path d="M177.289 118.965C176.495 120.419 175.355 121.654 173.972 122.56C172.542 123.52 170.784 123.999 168.699 123.999C167.388 124.013 166.088 123.762 164.876 123.262C163.735 122.789 162.703 122.087 161.843 121.2C160.978 120.302 160.3 119.241 159.846 118.079C159.357 116.819 159.114 115.477 159.13 114.125C159.123 112.827 159.352 111.538 159.807 110.323C160.236 109.164 160.881 108.097 161.709 107.182C162.574 106.24 163.626 105.493 164.798 104.988C165.97 104.482 167.234 104.231 168.509 104.251C169.939 104.251 171.214 104.49 172.334 104.969C173.415 105.423 174.386 106.108 175.178 106.975C175.981 107.874 176.59 108.93 176.968 110.077C177.393 111.356 177.603 112.697 177.59 114.045V114.385C177.565 114.496 177.553 114.61 177.551 114.725C177.527 114.824 177.514 114.925 177.514 115.027H163.312C163.365 115.833 163.583 116.618 163.952 117.335C164.276 117.957 164.717 118.51 165.252 118.962C165.757 119.386 166.339 119.707 166.966 119.907C167.562 120.104 168.185 120.207 168.812 120.21C170.016 120.21 171.008 119.92 171.789 119.341C172.566 118.76 173.219 118.027 173.708 117.187L177.289 118.965ZM173.407 111.815C173.341 111.379 173.221 110.953 173.049 110.548C172.85 110.065 172.556 109.628 172.184 109.263C171.746 108.84 171.235 108.501 170.677 108.261C170.062 107.984 169.315 107.845 168.436 107.845C167.232 107.845 166.196 108.205 165.327 108.923C164.459 109.642 163.875 110.606 163.575 111.815H173.407Z" fill="white"/>
<path d="M180.755 104.854H184.706V107.654H184.931C185.169 107.162 185.482 106.71 185.859 106.316C186.247 105.9 186.691 105.54 187.179 105.248C187.668 104.957 188.186 104.716 188.724 104.529C189.226 104.349 189.754 104.254 190.287 104.248C190.807 104.239 191.326 104.296 191.832 104.42C192.239 104.527 192.632 104.685 193 104.891L191.794 108.712C191.499 108.581 191.189 108.486 190.871 108.429C190.467 108.361 190.057 108.329 189.647 108.334C189.001 108.326 188.363 108.47 187.782 108.753C187.216 109.032 186.711 109.42 186.294 109.893C185.856 110.395 185.517 110.975 185.296 111.604C185.055 112.275 184.934 112.983 184.938 113.695V123.392H180.761L180.755 104.854Z" fill="white"/>
</g>
<defs>
<clipPath id="clip0_19_154">
<rect width="1440" height="278" fill="white"/>
</clipPath>
<clipPath id="clip1_19_154">
<rect width="24" height="24" fill="white" transform="translate(1117 158)"/>
</clipPath>
<clipPath id="clip2_19_154">
<rect width="24" height="24" fill="white" transform="translate(1181 158)"/>
</clipPath>
</defs>
</svg>
